<svg xmlns="http://www.w3.org/2000/svg" xmlns:lucid="lucid" width="120" height="120"><g lucid:page-tab-id="0_0"><path d="M-360-614h2000V386H-360z" fill="#fff"/><path d="M59.66 3.17c-1.14.1-2.05.34-2.96.8L17.26 23.4c-2.16 1.02-3.64 2.84-4.1 5.23L3.4 72.4c-.47 2.04-.12 4.08 1 5.9.13.23.24.34.47.57l27.28 35c1.48 1.94 3.52 2.97 5.9 2.97h43.9c2.38 0 4.42-1.03 5.9-2.96l27.28-35c1.48-1.94 2.05-4.2 1.48-6.6l-9.77-43.65c-.45-2.4-1.93-4.2-4.1-5.23L63.3 3.96c-1.25-.57-2.4-.9-3.64-.8z" stroke="#000" stroke-opacity="0" stroke-width="3.83" fill="#326ce5"/><path d="M59.64 0c-1.2.12-2.16.36-3.12.84L14.88 21.36c-2.28 1.08-3.84 3-4.32 5.52L.24 73.08c-.48 2.16-.12 4.32 1.08 6.24.12.24.24.36.48.6l28.8 36.96c1.56 2.04 3.72 3.12 6.24 3.12h46.32c2.52 0 4.68-1.08 6.24-3.12l28.8-36.96c1.56-2.04 2.16-4.44 1.56-6.84l-10.32-46.2c-.48-2.52-2.04-4.44-4.32-5.52L63.48.84c-1.32-.6-2.52-.96-3.84-.84zm0 3.24c1.32-.12 2.4.12 3.6.72l39.6 19.44c2.04 1.08 3.48 2.88 4.08 5.28l9.72 43.68c.48 2.4 0 4.56-1.44 6.48l-27.36 35.04c-1.44 1.92-3.48 3-5.88 3H38.04c-2.4 0-4.44-1.08-5.88-3L4.8 78.84c-.12-.12-.24-.36-.36-.6-1.2-1.8-1.56-3.72-1.08-5.88l9.72-43.68c.6-2.4 1.92-4.2 4.08-5.28l39.6-19.44c.96-.48 1.8-.72 2.88-.84z" stroke="#000" stroke-opacity="0" stroke-width="3.83" fill="#fff"/><path d="M43.86 97.48v6.5c0 .66.07 1.18.2 1.55.12.38.33.65.6.8.3.17.7.26 1.24.26.8 0 1.43-.3 1.9-.86.44-.56.67-1.33.67-2.33V97.5h1.65v8.04c0 1.2.02 1.92.06 2.2h-1.55l-.03-.27c0-.14 0-.3-.02-.47l-.03-1.02h-.03c-.38.7-.82 1.2-1.32 1.5-.5.3-1.1.44-1.85.44-1.1 0-1.9-.28-2.4-.84-.5-.56-.75-1.47-.75-2.77v-6.82zM60.14 104.88c0 .97-.35 1.7-1.06 2.23-.7.53-1.7.8-2.96.8-1.23 0-2.2-.22-2.86-.63-.66-.42-1.1-1.08-1.3-1.96l1.46-.3c.14.56.43.96.87 1.23.43.25 1.04.38 1.82.38.84 0 1.45-.13 1.83-.4.4-.26.6-.66.6-1.2 0-.4-.14-.72-.4-.97-.28-.25-.7-.46-1.3-.62l-1.2-.3c-.94-.27-1.62-.5-2.02-.75-.4-.25-.7-.54-.93-.9-.23-.33-.35-.76-.35-1.26 0-.94.32-1.65.97-2.14.64-.5 1.6-.74 2.82-.74 1.1 0 1.96.2 2.6.6.65.4 1.06 1.03 1.23 1.9l-1.5.2c-.08-.45-.32-.8-.72-1.05-.4-.24-.94-.36-1.6-.36-.75 0-1.3.13-1.66.36-.36.23-.54.58-.54 1.06 0 .3.07.53.22.72.15.18.36.35.65.47.3.15.9.33 1.8.56.9.23 1.52.44 1.9.64.4.2.7.4.9.63.23.24.4.5.53.82.13.3.18.64.18 1.03zM63.35 102.96c0 1.16.23 2.08.7 2.7.48.65 1.16.97 2.07.97.7 0 1.3-.15 1.72-.45.43-.3.72-.67.87-1.12l1.46.42c-.6 1.6-1.93 2.42-4.04 2.42-1.47 0-2.6-.45-3.36-1.35-.76-.9-1.14-2.25-1.14-4.02 0-1.68.38-3 1.14-3.9.77-.9 1.87-1.33 3.3-1.33 2.9 0 4.37 1.8 4.37 5.42v.24zm5.37-1.3c-.1-1.1-.35-1.87-.8-2.36-.43-.5-1.07-.74-1.9-.74-.8 0-1.42.27-1.9.82-.47.56-.7 1.3-.75 2.27zM72.57 107.7v-7.83c0-.72-.02-1.5-.05-2.4h1.55l.08 2.1h.03c.26-.87.57-1.47.9-1.8.35-.32.84-.47 1.46-.47.22 0 .44.03.67.1v1.55c-.2-.06-.5-.1-.87-.1-.68 0-1.2.3-1.57.92-.36.6-.54 1.47-.54 2.6v5.34z" stroke="#000" stroke-opacity="0" fill="#fff"/><path d="M34.43 24.8c-3.12 0-5.7 2.6-5.7 5.87v49.97c0 3.27 2.58 5.87 5.7 5.87h51.14c3.12 0 5.7-2.6 5.7-5.86V30.67c0-3.27-2.58-5.86-5.7-5.86zM60 34.56c4.88 0 8.75 4 8.75 9.07 0 5-3.87 9-8.75 9s-8.75-4-8.75-9c0-5.06 3.88-9.07 8.75-9.07zm0 24.13c6.82 0 20.44 3.5 20.44 10.55v7.53H39.56v-7.53c0-7.04 13.63-10.55 20.44-10.55z" stroke="#000" stroke-opacity="0" stroke-width="3.77" fill="#fff"/></g></svg>